<svg xmlns="http://www.w3.org/2000/svg" version="1.1" xmlns:xlink="http://www.w3.org/1999/xlink" xmlns:svgjs="http://svgjs.dev/svgjs" width="100%" height="100%" viewBox="0 0 1000 600"><rect width="1000" height="600" x="0" y="0" fill="#072c50"/><g><circle r="166.66666666666666" cx="376.63756815592444" cy="398.85978170060616" fill="#b88746" transform="matrix(0.5953204556526956,0,0,0.5953204556526956,0,62.55057420175392)"/><path d="M301.4775112592822 451.794232910536Q301.4775112592822 458.379598151483 294.89214601833527 458.379598151483L294.89214601833527 458.379598151483L293.08574374738106 458.379598151483Q286.5003785064341 458.379598151483 286.5003785064341 451.794232910536L286.5003785064341 451.794232910536L286.5003785064341 346.5884500161022Q286.5003785064341 340.00308477515523 293.08574374738106 340.00308477515523L293.08574374738106 340.00308477515523L296.37842636785456 340.00308477515523Q301.8204990322482 340.00308477515523 303.9470232246373 344.94210870586545L303.9470232246373 344.94210870586545L330.4485451491426 406.01679814534225Q331.27171580426096 407.82320041629646 332.5064717869385 408.8978954382565Q333.7412277696161 409.9725904602166 334.9073861977005 409.9725904602166L334.9073861977005 409.9725904602166Q336.3936665472197 409.9725904602166 337.2854347569313 408.57777351682165Q338.2000688181739 407.1829565734266 338.2000688181739 404.53051779582296L338.2000688181739 404.53051779582296L338.2000688181739 346.5884500161022Q338.2000688181739 340.00308477515523 344.7854340591209 340.00308477515523L344.7854340591209 340.00308477515523L346.59183633007507 340.00308477515523Q353.177201571022 340.00308477515523 353.177201571022 346.5884500161022L353.177201571022 346.5884500161022L353.177201571022 451.794232910536Q353.177201571022 458.379598151483 346.59183633007507 458.379598151483L346.59183633007507 458.379598151483L344.7854340591209 458.379598151483Q339.34336139472725 458.379598151483 337.21683720233807 453.44057422077276L337.21683720233807 453.44057422077276L309.2290349283135 389.3933240822574Q307.5826936180768 385.437531767383 304.93025484047314 385.437531767383L304.93025484047314 385.437531767383Q303.46684034248494 385.437531767383 302.46074287511806 386.9238121169023Q301.4775112592822 388.41009246642153 301.4775112592822 391.0396653924941L301.4775112592822 391.0396653924941L301.4775112592822 451.794232910536ZM385.120796159921 467.2744143970676Q385.120796159921 473.8597796380146 378.53543091897404 473.8597796380146L378.53543091897404 473.8597796380146L376.2259799143364 473.8597796380146Q369.64061467338945 473.8597796380146 369.64061467338945 467.2744143970676L369.64061467338945 467.2744143970676L369.64061467338945 330.4451588351697Q369.64061467338945 323.8597935942227 376.2259799143364 323.8597935942227L376.2259799143364 323.8597935942227L378.53543091897404 323.8597935942227Q385.120796159921 323.8597935942227 385.120796159921 330.4451588351697L385.120796159921 330.4451588351697L385.120796159921 467.2744143970676ZM458.3829844654559 378.5320446050011Q451.79761922450894 378.5320446050011 451.79761922450894 371.94667936405415L451.79761922450894 371.94667936405415L451.79761922450894 358.9360098428777Q451.79761922450894 352.35064460193075 445.21225398356194 352.35064460193075L445.21225398356194 352.35064460193075L423.14670725608346 352.35064460193075Q416.56134201513646 352.35064460193075 416.56134201513646 358.9360098428777L416.56134201513646 358.9360098428777L416.56134201513646 385.1174098459481Q416.56134201513646 391.70277508689503 423.14670725608346 391.70277508689503L423.14670725608346 391.70277508689503L450.1512779142722 391.70277508689503Q454.93024088426495 391.70277508689503 458.22292350473845 394.99545770736853L458.22292350473845 394.99545770736853L463.4820693568835 400.25460355951367Q466.774751977357 403.5472861799871 466.774751977357 408.3262491499799L466.774751977357 408.3262491499799L466.774751977357 441.5731972761496Q466.774751977357 446.3521602461423 463.4820693568835 449.8049038273333L463.4820693568835 449.8049038273333L458.22292350473845 455.0869155310095Q454.93024088426495 458.379598151483 450.1512779142722 458.379598151483L450.1512779142722 458.379598151483L418.36774428609067 458.379598151483Q413.5887813160979 458.379598151483 410.29609869562444 455.0869155310095L410.29609869562444 455.0869155310095L404.87689188276187 449.6448428666158Q401.58420926228837 446.3521602461423 401.58420926228837 441.5731972761496L401.58420926228837 441.5731972761496L401.58420926228837 425.4527719467482Q401.58420926228837 418.8674067058012 408.16957450323537 418.8674067058012L408.16957450323537 418.8674067058012L409.9759767741895 418.8674067058012Q416.56134201513646 418.8674067058012 416.56134201513646 425.4527719467482L416.56134201513646 425.4527719467482L416.56134201513646 436.8171001576879Q416.56134201513646 443.4024653986349 423.14670725608346 443.4024653986349L423.14670725608346 443.4024653986349L445.21225398356194 443.4024653986349Q451.79761922450894 443.4024653986349 451.79761922450894 436.8171001576879L451.79761922450894 436.8171001576879L451.79761922450894 413.10521211997263Q451.79761922450894 406.5198468790257 445.21225398356194 406.5198468790257L445.21225398356194 406.5198468790257L418.36774428609067 406.5198468790257Q413.4287203553805 406.5198468790257 410.136037734907 403.2271642585522L410.136037734907 403.2271642585522L404.87689188276187 397.945152554876Q401.58420926228837 394.6524699344025 401.58420926228837 389.8963728159408L401.58420926228837 389.8963728159408L401.58420926228837 354.15704687288496Q401.58420926228837 349.3780839028922 404.87689188276187 345.92534032170124L404.87689188276187 345.92534032170124L410.136037734907 340.6661944695561Q413.4287203553805 337.3735118490826 418.20768332537324 337.3735118490826L418.20768332537324 337.3735118490826L450.1512779142722 337.3735118490826Q454.93024088426495 337.3735118490826 458.22292350473845 340.8262554302736L458.22292350473845 340.8262554302736L463.4820693568835 346.08540128241873Q466.774751977357 349.3780839028922 466.774751977357 354.15704687288496L466.774751977357 354.15704687288496L466.774751977357 371.94667936405415Q466.774751977357 378.5320446050011 460.1893867364101 378.5320446050011L460.1893867364101 378.5320446050011L458.3829844654559 378.5320446050011Z " fill="#072c50" transform="matrix(0.5953204556526956,0,0,0.5953204556526956,0,62.55057420175392)"/><path d="M645.1787949744632 465.50913968410424Q645.1787949744632 473.661620439286 637.0263142192814 473.661620439286L637.0263142192814 473.661620439286L634.7900434565753 473.661620439286Q626.6375627013934 473.661620439286 626.6375627013934 465.50913968410424L626.6375627013934 465.50913968410424L626.6375627013934 335.26759817510543Q626.6375627013934 327.1151174199236 634.7900434565753 327.1151174199236L634.7900434565753 327.1151174199236L638.8662838341662 327.1151174199236Q645.603403347129 327.1151174199236 648.2359752576565 333.22947798631L648.2359752576565 333.22947798631L681.0440488522945 408.83807554565266Q682.0631089466922 411.07434630835877 683.5916990882888 412.4047858760447Q685.1202892298854 413.7352254437306 686.5639576969488 413.7352254437306L686.5639576969488 413.7352254437306Q688.4039273118336 413.7352254437306 689.5079090807645 412.0084847282234Q690.6401980745397 410.2817440127161 690.6401980745397 406.99810593076785L690.6401980745397 406.99810593076785L690.6401980745397 335.26759817510543Q690.6401980745397 327.1151174199236 698.7926788297216 327.1151174199236L698.7926788297216 327.1151174199236L701.0289495924278 327.1151174199236Q709.1814303476096 327.1151174199236 709.1814303476096 335.26759817510543L709.1814303476096 335.26759817510543L709.1814303476096 465.50913968410424Q709.1814303476096 473.661620439286 701.0289495924278 473.661620439286L701.0289495924278 473.661620439286L698.7926788297216 473.661620439286Q692.0555593167588 473.661620439286 689.4229874062314 467.54725987289964L689.4229874062314 467.54725987289964L654.7749441967086 388.2587230837874Q652.7368240079131 383.3615731857094 649.4531859259648 383.3615731857094L649.4531859259648 383.3615731857094Q647.6415235359245 383.3615731857094 646.3960056427717 385.20154280059415Q645.1787949744632 387.04151241547896 645.1787949744632 390.29684327258286L645.1787949744632 390.29684327258286L645.1787949744632 465.50913968410424ZM795.8015383714167 427.6057656174775Q795.8015383714167 435.75824637265936 787.6490576162348 435.75824637265936L787.6490576162348 435.75824637265936L756.2563452638159 435.75824637265936Q748.103864508634 435.75824637265936 748.103864508634 443.9107271278412L748.103864508634 443.9107271278412L748.103864508634 446.7414496122793Q748.103864508634 454.8939303674611 756.2563452638159 454.8939303674611L756.2563452638159 454.8939303674611L787.6490576162348 454.8939303674611Q795.8015383714167 454.8939303674611 795.8015383714167 463.046411122643L795.8015383714167 463.046411122643L795.8015383714167 465.3109891101935Q795.8015383714167 473.4634698653753 787.6490576162348 473.4634698653753L787.6490576162348 473.4634698653753L750.1419846974295 473.4634698653753Q744.2257747049538 473.4634698653753 740.1495343273629 469.1607716890294L740.1495343273629 469.1607716890294L733.6388726131552 462.65010997482165Q729.5626322355643 458.5738695972307 729.5626322355643 452.65765960475505L729.5626322355643 452.65765960475505L729.5626322355643 393.5521741296867Q729.5626322355643 387.635964137211 733.6388726131552 383.55972375962006L733.6388726131552 383.55972375962006L740.1495343273629 377.04906204541237Q744.2257747049538 372.9728216678214 750.1419846974295 372.9728216678214L750.1419846974295 372.9728216678214L775.2221859095514 372.9728216678214Q781.138395902027 372.9728216678214 785.2146362796179 377.04906204541237L785.2146362796179 377.04906204541237L791.7252979938257 383.55972375962006Q795.8015383714167 387.635964137211 795.8015383714167 393.5521741296867L795.8015383714167 393.5521741296867L795.8015383714167 427.6057656174775ZM748.103864508634 411.30080410711383Q748.103864508634 419.4532848622957 756.2563452638159 419.4532848622957L756.2563452638159 419.4532848622957L769.107825343165 419.4532848622957Q777.2603060983469 419.4532848622957 777.2603060983469 411.30080410711383L777.2603060983469 411.30080410711383L777.2603060983469 399.4683841221624Q777.2603060983469 391.31590336698054 769.107825343165 391.31590336698054L769.107825343165 391.31590336698054L756.2563452638159 391.31590336698054Q748.103864508634 391.31590336698054 748.103864508634 399.4683841221624L748.103864508634 399.4683841221624L748.103864508634 411.30080410711383ZM866.11668488486 381.1253024230033Q866.11668488486 372.9728216678214 874.2691656400418 372.9728216678214L874.2691656400418 372.9728216678214L876.505436402748 372.9728216678214Q884.6579171579299 372.9728216678214 884.6579171579299 381.1253024230033L884.6579171579299 381.1253024230033L884.6579171579299 452.8558101786657Q884.6579171579299 458.7720201711414 880.581676780339 463.046411122643L880.581676780339 463.046411122643L874.0710150661312 469.5853800616951Q869.9947746885402 473.661620439286 864.0785646960646 473.661620439286L864.0785646960646 473.661620439286L838.9983634839426 473.661620439286Q833.1104607163113 473.661620439286 829.0342203387204 469.5853800616951L829.0342203387204 469.5853800616951L822.2971008257576 462.8482605487323Q818.2208604481667 458.7720201711414 818.2208604481667 452.8558101786657L818.2208604481667 452.8558101786657L818.2208604481667 381.1253024230033Q818.2208604481667 372.9728216678214 826.3733412033486 372.9728216678214L826.3733412033486 372.9728216678214L828.6096119660547 372.9728216678214Q836.7620927212365 372.9728216678214 836.7620927212365 381.1253024230033L836.7620927212365 381.1253024230033L836.7620927212365 446.9679074110344Q836.7620927212365 455.1203881662162 844.9145734764184 455.1203881662162L844.9145734764184 455.1203881662162L857.9642041296781 455.1203881662162Q866.11668488486 455.1203881662162 866.11668488486 446.9679074110344L866.11668488486 446.9679074110344L866.11668488486 381.1253024230033ZM927.6565916965451 465.3109891101935Q927.6565916965451 473.4634698653753 919.5041109413633 473.4634698653753L919.5041109413633 473.4634698653753L917.2678401786573 473.4634698653753Q909.1153594234754 473.4634698653753 909.1153594234754 465.3109891101935L909.1153594234754 465.3109891101935L909.1153594234754 393.75032470359736Q909.1153594234754 387.86242193596604 913.1915998010663 383.7861815583751L913.1915998010663 383.7861815583751L919.928719314029 377.04906204541237Q924.0049596916199 372.9728216678214 929.9211696840957 372.9728216678214L929.9211696840957 372.9728216678214L933.5728016890209 372.9728216678214Q941.7252824442028 372.9728216678214 941.7252824442028 381.1253024230033L941.7252824442028 381.1253024230033L941.7252824442028 383.3615731857094Q941.7252824442028 391.51405394089124 934.7900123573293 391.51405394089124L934.7900123573293 391.51405394089124Q931.3365309263147 391.51405394089124 929.49656131143 393.66540302906424Q927.6565916965451 395.7884448923928 927.6565916965451 399.6665346960731L927.6565916965451 399.6665346960731L927.6565916965451 465.3109891101935ZM1016.5412777079027 383.55972375962006Q1020.6175180854937 387.86242193596604 1020.6175180854937 393.75032470359736L1020.6175180854937 393.75032470359736L1020.6175180854937 452.8558101786657Q1020.6175180854937 458.7720201711414 1016.5412777079027 463.046411122643L1016.5412777079027 463.046411122643L1010.0023087688506 469.5853800616951Q1005.9260683912596 473.661620439286 1000.009858398784 473.661620439286L1000.009858398784 473.661620439286L974.7598138375959 473.661620439286Q968.84360384512 473.661620439286 964.7673634675291 469.5853800616951L964.7673634675291 469.5853800616951L958.0302439545665 462.8482605487323Q953.9540035769755 458.7720201711414 953.9540035769755 452.8558101786657L953.9540035769755 452.8558101786657L953.9540035769755 393.75032470359736Q953.9540035769755 387.86242193596604 958.0302439545665 383.7861815583751L958.0302439545665 383.7861815583751L964.7673634675291 377.04906204541237Q968.84360384512 372.9728216678214 974.7598138375959 372.9728216678214L974.7598138375959 372.9728216678214L1000.009858398784 372.9728216678214Q1005.9260683912596 372.9728216678214 1010.0023087688506 377.04906204541237L1010.0023087688506 377.04906204541237L1016.5412777079027 383.55972375962006ZM1002.0479785875795 399.6665346960731Q1002.0479785875795 391.51405394089124 993.8954978323976 391.51405394089124L993.8954978323976 391.51405394089124L980.6477166052271 391.51405394089124Q972.4952358500452 391.51405394089124 972.4952358500452 399.6665346960731L972.4952358500452 399.6665346960731L972.4952358500452 446.9679074110344Q972.4952358500452 455.1203881662162 980.6477166052271 455.1203881662162L980.6477166052271 455.1203881662162L993.8954978323976 455.1203881662162Q1002.0479785875795 455.1203881662162 1002.0479785875795 446.9679074110344L1002.0479785875795 446.9679074110344L1002.0479785875795 399.6665346960731ZM1148.0000298852099 374.8127912827062Q1139.847549130028 374.8127912827062 1139.847549130028 366.66031052752436L1139.847549130028 366.66031052752436L1139.847549130028 350.55349959107133Q1139.847549130028 342.40101883588954 1131.6950683748462 342.40101883588954L1131.6950683748462 342.40101883588954L1104.3785964000183 342.40101883588954Q1096.2261156448362 342.40101883588954 1096.2261156448362 350.55349959107133L1096.2261156448362 350.55349959107133L1096.2261156448362 382.96527203788804Q1096.2261156448362 391.1177527930699 1104.3785964000183 391.1177527930699L1104.3785964000183 391.1177527930699L1137.8094289412325 391.1177527930699Q1143.6973317088639 391.1177527930699 1147.7735720864548 395.1939931706608L1147.7735720864548 395.1939931706608L1154.312541025507 401.70465488486855Q1158.3887814030977 405.78089526245947 1158.3887814030977 411.69710525493514L1158.3887814030977 411.69710525493514L1158.3887814030977 452.8558101786657Q1158.3887814030977 458.7720201711414 1154.312541025507 463.046411122643L1154.312541025507 463.046411122643L1147.7735720864548 469.5853800616951Q1143.6973317088639 473.661620439286 1137.8094289412325 473.661620439286L1137.8094289412325 473.661620439286L1098.4623864075425 473.661620439286Q1092.5461764150668 473.661620439286 1088.4699360374757 469.5853800616951L1088.4699360374757 469.5853800616951L1081.7611237493575 462.8482605487323Q1077.6848833717665 458.7720201711414 1077.6848833717665 452.8558101786657L1077.6848833717665 452.8558101786657L1077.6848833717665 432.8992166633768Q1077.6848833717665 424.74673590819503 1085.8373641269484 424.74673590819503L1085.8373641269484 424.74673590819503L1088.0736348896544 424.74673590819503Q1096.2261156448362 424.74673590819503 1096.2261156448362 432.8992166633768L1096.2261156448362 432.8992166633768L1096.2261156448362 446.9679074110344Q1096.2261156448362 455.1203881662162 1104.3785964000183 455.1203881662162L1104.3785964000183 455.1203881662162L1131.6950683748462 455.1203881662162Q1139.847549130028 455.1203881662162 1139.847549130028 446.9679074110344L1139.847549130028 446.9679074110344L1139.847549130028 417.61331524741087Q1139.847549130028 409.460834492229 1131.6950683748462 409.460834492229L1131.6950683748462 409.460834492229L1098.4623864075425 409.460834492229Q1092.348025841156 409.460834492229 1088.2717854635653 405.3845941146381L1088.2717854635653 405.3845941146381L1081.7611237493575 398.845625175586Q1077.6848833717665 394.7693847979951 1077.6848833717665 388.88148203036377L1077.6848833717665 388.88148203036377L1077.6848833717665 344.63728959859566Q1077.6848833717665 338.72107960611993 1081.7611237493575 334.44668865461836L1081.7611237493575 334.44668865461836L1088.2717854635653 327.9360269404106Q1092.348025841156 323.8597865628197 1098.2642358336318 323.8597865628197L1098.2642358336318 323.8597865628197L1137.8094289412325 323.8597865628197Q1143.6973317088639 323.8597865628197 1147.7735720864548 328.1341775143213L1147.7735720864548 328.1341775143213L1154.312541025507 334.644839228529Q1158.3887814030977 338.72107960611993 1158.3887814030977 344.63728959859566L1158.3887814030977 344.63728959859566L1158.3887814030977 366.66031052752436Q1158.3887814030977 374.8127912827062 1150.2363006479159 374.8127912827062L1150.2363006479159 374.8127912827062L1148.0000298852099 374.8127912827062ZM1186.9224640462344 473.85977101319673Q1178.7699832910525 473.85977101319673 1178.7699832910525 465.7072902580149L1178.7699832910525 465.7072902580149L1178.7699832910525 335.8903571216818Q1178.7699832910525 327.73787636649996 1186.9224640462344 327.73787636649996L1186.9224640462344 327.73787636649996L1189.1587348089404 327.73787636649996Q1197.3112155641222 327.73787636649996 1197.3112155641222 335.8903571216818L1197.3112155641222 335.8903571216818L1197.3112155641222 364.8203409126396Q1197.3112155641222 372.9728216678214 1205.463696319304 372.9728216678214L1205.463696319304 372.9728216678214L1224.2030791662846 372.9728216678214Q1230.1192891587602 372.9728216678214 1234.1955295363512 377.04906204541237L1234.1955295363512 377.04906204541237L1240.932649049314 383.7861815583751Q1245.008889426905 387.86242193596604 1245.008889426905 393.75032470359736L1245.008889426905 393.75032470359736L1245.008889426905 465.7072902580149Q1245.008889426905 473.85977101319673 1236.856408671723 473.85977101319673L1236.856408671723 473.85977101319673L1234.620137909017 473.85977101319673Q1226.4676571538353 473.85977101319673 1226.4676571538353 465.7072902580149L1226.4676571538353 465.7072902580149L1226.4676571538353 399.6665346960731Q1226.4676571538353 391.51405394089124 1218.3151763986534 391.51405394089124L1218.3151763986534 391.51405394089124L1205.463696319304 391.51405394089124Q1197.3112155641222 391.51405394089124 1197.3112155641222 399.6665346960731L1197.3112155641222 399.6665346960731L1197.3112155641222 465.7072902580149Q1197.3112155641222 473.85977101319673 1189.1587348089404 473.85977101319673L1189.1587348089404 473.85977101319673L1186.9224640462344 473.85977101319673ZM1288.205714539431 473.4634698653753Q1282.2895045469552 473.4634698653753 1278.2132641693643 469.3872294877844L1278.2132641693643 469.3872294877844L1271.504451881246 462.65010997482165Q1267.428211503655 458.5738695972307 1267.428211503655 452.65765960475505L1267.428211503655 452.65765960475505L1267.428211503655 429.0211268596966Q1267.428211503655 425.96394657650336 1268.4472715980528 423.6144469144197Q1269.4663316924502 421.26494725233607 1271.7026024551565 419.02867648962996L1271.7026024551565 419.02867648962996L1278.2132641693643 412.5180147754222Q1282.2895045469552 408.4417743978313 1288.205714539431 408.4417743978313L1288.205714539431 408.4417743978313L1307.5678563329877 408.4417743978313Q1315.7203370881696 408.4417743978313 1315.7203370881696 400.28929364264945L1315.7203370881696 400.28929364264945L1315.7203370881696 399.6665346960731Q1315.7203370881696 391.51405394089124 1307.5678563329877 391.51405394089124L1307.5678563329877 391.51405394089124L1276.175143980569 391.51405394089124Q1268.022663225387 391.51405394089124 1268.022663225387 383.3615731857094L1268.022663225387 383.3615731857094L1268.022663225387 381.1253024230033Q1268.022663225387 372.9728216678214 1276.175143980569 372.9728216678214L1276.175143980569 372.9728216678214L1313.4840663254636 372.9728216678214Q1319.4002763179392 372.9728216678214 1323.47651669553 377.04906204541237L1323.47651669553 377.04906204541237L1330.1853289836486 383.7861815583751Q1334.2615693612395 387.86242193596604 1334.2615693612395 393.75032470359736L1334.2615693612395 393.75032470359736L1334.2615693612395 465.3109891101935Q1334.2615693612395 473.4634698653753 1326.1090886060574 473.4634698653753L1326.1090886060574 473.4634698653753L1288.205714539431 473.4634698653753ZM1315.7203370881696 433.2955178111982Q1315.7203370881696 425.14303705601634 1307.5678563329877 425.14303705601634L1307.5678563329877 425.14303705601634L1294.1219245319066 425.14303705601634Q1285.9694437767248 425.14303705601634 1285.9694437767248 433.2955178111982L1285.9694437767248 433.2955178111982L1285.9694437767248 448.58141922716413Q1285.9694437767248 456.7338999823459 1294.1219245319066 456.7338999823459L1294.1219245319066 456.7338999823459L1307.5678563329877 456.7338999823459Q1315.7203370881696 456.7338999823459 1315.7203370881696 448.58141922716413L1315.7203370881696 448.58141922716413L1315.7203370881696 433.2955178111982ZM1377.288551124699 465.3109891101935Q1377.288551124699 473.4634698653753 1369.1360703695173 473.4634698653753L1369.1360703695173 473.4634698653753L1366.8714923819668 473.4634698653753Q1358.719011626785 473.4634698653753 1358.719011626785 465.3109891101935L1358.719011626785 465.3109891101935L1358.719011626785 393.75032470359736Q1358.719011626785 387.86242193596604 1362.795252004376 383.7861815583751L1362.795252004376 383.7861815583751L1369.5323715173388 377.04906204541237Q1373.6086118949297 372.9728216678214 1379.5248218874053 372.9728216678214L1379.5248218874053 372.9728216678214L1383.1764538923305 372.9728216678214Q1391.3289346475121 372.9728216678214 1391.3289346475121 381.1253024230033L1391.3289346475121 381.1253024230033L1391.3289346475121 383.3615731857094Q1391.3289346475121 391.51405394089124 1384.4219717854833 391.51405394089124L1384.4219717854833 391.51405394089124Q1380.9401831296243 391.51405394089124 1379.1002135147396 393.66540302906424Q1377.288551124699 395.7884448923928 1377.288551124699 399.6665346960731L1377.288551124699 399.6665346960731L1377.288551124699 465.3109891101935ZM1469.7965619161373 427.6057656174775Q1469.7965619161373 435.75824637265936 1461.6440811609557 435.75824637265936L1461.6440811609557 435.75824637265936L1430.279676033381 435.75824637265936Q1422.1271952781992 435.75824637265936 1422.1271952781992 443.9107271278412L1422.1271952781992 443.9107271278412L1422.1271952781992 446.7414496122793Q1422.1271952781992 454.8939303674611 1430.279676033381 454.8939303674611L1430.279676033381 454.8939303674611L1461.6440811609557 454.8939303674611Q1469.7965619161373 454.8939303674611 1469.7965619161373 463.046411122643L1469.7965619161373 463.046411122643L1469.7965619161373 465.3109891101935Q1469.7965619161373 473.4634698653753 1461.6440811609557 473.4634698653753L1461.6440811609557 473.4634698653753L1424.1653154669948 473.4634698653753Q1418.249105474519 473.4634698653753 1414.172865096928 469.1607716890294L1414.172865096928 469.1607716890294L1407.633896157876 462.65010997482165Q1403.5576557802851 458.5738695972307 1403.5576557802851 452.65765960475505L1403.5576557802851 452.65765960475505L1403.5576557802851 393.5521741296867Q1403.5576557802851 387.635964137211 1407.633896157876 383.55972375962006L1407.633896157876 383.55972375962006L1414.172865096928 377.04906204541237Q1418.249105474519 372.9728216678214 1424.1653154669948 372.9728216678214L1424.1653154669948 372.9728216678214L1449.2172094542723 372.9728216678214Q1455.133419446748 372.9728216678214 1459.2096598243388 377.04906204541237L1459.2096598243388 377.04906204541237L1465.7203215385466 383.55972375962006Q1469.7965619161373 387.635964137211 1469.7965619161373 393.5521741296867L1469.7965619161373 393.5521741296867L1469.7965619161373 427.6057656174775ZM1422.1271952781992 411.30080410711383Q1422.1271952781992 419.4532848622957 1430.279676033381 419.4532848622957L1430.279676033381 419.4532848622957L1443.1028488878858 419.4532848622957Q1451.2553296430679 419.4532848622957 1451.2553296430679 411.30080410711383L1451.2553296430679 411.30080410711383L1451.2553296430679 399.4683841221624Q1451.2553296430679 391.31590336698054 1443.1028488878858 391.31590336698054L1443.1028488878858 391.31590336698054L1430.279676033381 391.31590336698054Q1422.1271952781992 391.31590336698054 1422.1271952781992 399.4683841221624L1422.1271952781992 399.4683841221624L1422.1271952781992 411.30080410711383Z " fill="#b88746" transform="matrix(0.5953204556526956,0,0,0.5953204556526956,0,62.55057420175392)"/></g></svg>